<?xml version="1.0" encoding="utf-8" ?><svg xmlns="http://www.w3.org/2000/svg" xmlns:xlink="http://www.w3.org/1999/xlink" width="630" height="120" viewBox="200 440 630 120"><path transform="matrix(0.988873 -0.0111266 0.0111266 0.988873 0 11.3936)" d="M245.849 457.676C248.815 457.448 251.35 457.343 254.338 457.447C268.144 457.983 281.167 463.999 290.524 474.164C309.226 494.418 307.969 526.774 287.288 545.239C280.843 532.342 274.619 525.522 260.377 521.694C254.795 520.493 249.015 520.558 243.461 521.883C230.035 525.218 223.878 533.274 217.187 544.407C208.615 537.005 203.085 526.693 201.662 515.457C197.672 486.186 216.621 461.576 245.849 457.676Z"/><path transform="matrix(0.988873 -0.0111266 0.0111266 0.988873 0 11.3936)" d="M379.452 489.855C380.352 488.65 381.337 487.531 382.376 486.445C387.665 480.921 394.671 478.189 402.234 478.042C409.725 477.896 416.907 480.079 422.281 485.503C433.269 496.595 431.191 514.359 431.144 528.625C431.12 535.691 431.479 542.812 431.388 549.856C431.358 552.172 431.05 555.107 429.138 556.69C426.781 558.64 417.589 558.269 414.491 557.869C412.734 557.642 410.633 557.153 409.581 555.578C405.364 549.263 412.811 511.664 405.585 502.736C403.71 500.418 401.191 499.497 398.288 499.284C394.622 499.016 391.187 499.869 388.452 502.43C386.888 503.894 385.699 505.923 385.108 507.976C382.703 516.338 383.971 536.738 383.991 546.22C384.243 561.057 380.17 557.826 366.781 558C360.083 558.087 362.118 547.254 361.516 543.991C359.502 533.083 368.102 501.708 352.244 499.476C328.603 496.525 340.479 539.398 337.465 553.067C336.021 559.613 318.5 560.22 315.69 554.849C314.098 551.804 315 545.182 315.025 541.504L315.036 514.622C315.035 509.019 314.179 485.37 315.456 481.391C318.22 478.333 331.515 477.913 334.761 480.848C336.489 482.411 336.396 484.017 336.563 486.077L336.619 486.83C343.173 480.659 346.542 478.976 355.493 478.2C367.057 478.149 371.889 481.697 379.452 489.855Z"/><path fill-rule="evenodd" transform="matrix(0.988873 -0.0111266 0.0111266 0.988873 0 11.3936)" d="M693.988 478.367C716.428 475.135 737.229 490.733 740.414 513.179C743.598 535.626 727.956 556.394 705.503 559.532C683.117 562.66 662.423 547.074 659.248 524.695C656.073 502.315 671.615 481.589 693.988 478.367ZM697.966 498.133C722.557 498.255 724.945 534.411 702.698 540.166C676.307 541.493 674.068 502.086 697.966 498.133Z"/><path transform="matrix(0.988873 -0.0111266 0.0111266 0.988873 0 11.3936)" d="M789.332 478.149C832.085 474.272 820.141 527.363 821.077 553.868C821.266 559.214 800.583 559.509 799.363 554.54C796.085 541.185 808.859 484.907 778.441 501.296C776.46 503.074 774.933 504.981 774.071 507.536C770.799 517.229 775.191 551.37 771.771 555.646C770.766 556.903 769.405 557.59 767.827 557.803C763.923 558.332 754.625 558.774 751.518 556.217C750.848 554.133 750.576 552.112 750.457 549.936C750.06 542.64 749.375 484.876 751.188 481.473C751.799 480.325 753.695 479.762 754.889 479.567C757.825 479.087 768.386 478.628 770.534 480.564C772.022 481.904 771.901 484.034 771.97 485.854L771.993 486.588C777.331 481.143 782.103 479.221 789.332 478.149Z"/><path transform="matrix(0.988873 -0.0111266 0.0111266 0.988873 0 11.3936)" d="M505.821 478.183C514.756 477.677 520.849 478.426 529.727 481.286C542.806 485.501 545.18 489.881 535.418 500.783C535.072 501.324 532.851 503.005 532.242 502.912C527.993 502.261 522.956 498.987 518.889 497.952C513.535 496.588 499.585 493.164 500.754 502.681C501.111 505.589 506.658 507.157 508.774 507.623C518.002 509.654 527.805 511.07 535.665 516.672C546.161 524.007 546.158 540.991 538.345 550.22C532.141 557.549 522.064 559.257 513.083 559.952C502.972 560.099 488.989 557.552 480.101 552.074C478.666 551.19 477.247 549.348 477.213 547.542C477.156 544.565 481.921 537.696 483.848 535.723C488.369 531.095 494.677 537.598 499.709 539.363C503.446 541.153 507.163 541.247 511.048 541.721C514.326 542.121 523.624 540.056 522.282 535.537C520.181 528.465 504.009 528.2 497.996 525.66C494.157 524.038 490.318 523.429 486.979 520.491C477.404 513.033 476.61 497.482 483.944 488.187C489.308 481.388 497.533 479.192 505.821 478.183Z"/><path transform="matrix(0.988873 -0.0111266 0.0111266 0.988873 0 11.3936)" d="M577.823 478.187C578.99 478.071 580.162 478.007 581.334 477.993C591.356 477.852 604.621 479.831 612.902 486.311C617.225 489.694 609.152 500.282 606.681 502.255C601.027 503.323 594.36 497.578 587.928 496.906C583.548 496.448 573.55 494.338 573.628 501.597C573.686 507.093 592.74 509.963 597.779 511.165C616.961 515.742 622.487 534.795 611.082 550.024C605.978 556.83 595.274 559.101 586.24 559.855C576.305 560.024 567.499 558.651 558.355 554.654C555.205 553.696 549.56 550.202 551.114 546.229C555.365 535.359 558.411 530.828 568.721 537.237C575.201 541.265 587.199 544.016 593.023 539.494C594.512 538.338 595.227 537.047 595.408 535.076C593.972 530.109 585.454 528.881 580.922 527.874C567.743 524.948 554.623 521.582 552.503 505.711C550.167 488.218 562.294 480.063 577.823 478.187Z"/><path transform="matrix(0.988873 -0.0111266 0.0111266 0.988873 0 11.3936)" d="M454.227 478.715C461.478 478.787 467.199 477.525 467.237 486.608C467.329 508.739 467.781 531.1 467.12 553.219C466.99 557.575 462.457 557.673 459.149 557.792C447.356 558.061 444.678 559.071 445.052 546.317C445.633 526.471 444.771 506.469 445.039 486.605C445.138 479.293 448.02 479.244 454.227 478.715Z"/><path transform="matrix(0.988873 -0.0111266 0.0111266 0.988873 0 11.3936)" d="M631.717 479.151C635.8 478.888 645.423 477.779 648.215 481.212C648.829 483.699 649.224 486.174 649.32 488.736C649.54 494.608 650.221 552.833 648.887 555.214C647.924 556.932 646.651 557.355 644.89 557.867C639.852 557.97 632.018 558.924 628.389 555.622C626.562 548.884 627.381 493.032 627.742 482.532C627.784 481.284 630.343 479.837 631.717 479.151Z"/><path transform="matrix(0.988873 -0.0111266 0.0111266 0.988873 0 11.3936)" d="M454.488 444.035C461.908 443.035 468.741 448.218 469.778 455.632C470.815 463.047 465.667 469.906 458.257 470.98C450.796 472.061 443.878 466.868 442.833 459.402C441.789 451.935 447.016 445.043 454.488 444.035Z"/><path transform="matrix(0.988873 -0.0111266 0.0111266 0.988873 0 11.3936)" d="M636.68 444.119C644.07 443.379 650.684 448.711 651.528 456.09C652.372 463.469 647.133 470.157 639.767 471.105C634.909 471.73 630.091 469.691 627.157 465.769C624.223 461.846 623.629 456.648 625.601 452.165C627.573 447.681 631.807 444.607 636.68 444.119Z"/></svg>